<?xml version="1.0" standalone="no"?>
<!DOCTYPE svg PUBLIC "-//W3C//DTD SVG 20010904//EN"
 "http://www.w3.org/TR/2001/REC-SVG-20010904/DTD/svg10.dtd">
<svg version="1.0" xmlns="http://www.w3.org/2000/svg"
 width="452.000000pt" height="452.000000pt" viewBox="0 0 452.000000 452.000000"
 preserveAspectRatio="xMidYMid meet">
<metadata>
Created by potrace 1.14, written by Peter Selinger 2001-2017
</metadata>
<g transform="translate(0.000000,452.000000) scale(0.100000,-0.100000)"
fill="#000000" stroke="none">
<path d="M2089 4516 c-2 -2 -37 -7 -77 -10 -40 -4 -78 -9 -85 -11 -7 -2 -30
-6 -52 -9 -22 -3 -78 -14 -125 -26 -47 -11 -95 -23 -107 -25 -111 -25 -380
-139 -513 -218 -41 -24 -171 -107 -185 -119 -5 -4 -46 -36 -90 -70 -320 -249
-586 -620 -725 -1013 -29 -82 -76 -254 -86 -315 -3 -14 -9 -50 -14 -80 -6 -30
-13 -82 -17 -115 -10 -77 -10 -412 0 -488 10 -83 31 -210 41 -252 2 -5 6 -23
10 -40 174 -695 650 -1258 1301 -1540 22 -9 49 -21 60 -26 38 -17 230 -78 300
-94 106 -25 110 -26 270 -51 22 -3 130 -7 240 -8 155 -3 230 1 330 16 295 43
545 127 809 272 303 167 614 465 802 768 62 101 164 300 164 320 0 8 4 18 9
24 14 14 69 176 97 288 54 211 68 326 69 556 0 233 -11 339 -58 540 -37 158
-131 405 -205 540 -257 466 -658 825 -1142 1023 -150 62 -364 120 -520 143
-25 3 -56 8 -70 10 -31 6 -426 14 -431 10z"/>
</g>
</svg>
